<svg width="158" height="157" viewBox="0 0 158 157" fill="none" xmlns="http://www.w3.org/2000/svg">
    <g clip-path="url(#clip0_298_24)">
        <path d="M68.1269 0.687149C8.89995 8.75293 -22.1657 83.1955 18.3113 129.262C37.3673 150.949 66.7563 161.082 95.1269 155.051C104.121 153.139 113.408 145.554 122.127 144.953C131.374 144.317 142.158 156.095 150.975 153.474C155.125 152.241 153.06 147.016 152.073 144.262C149.538 137.19 142.821 126.831 145.518 119.262C150.758 104.557 157.541 92.4497 156.983 76.1725C155.426 30.6979 113.419 -5.48089 68.1269 0.687149ZM74.127 28.5475C137.614 20.9791 147.375 121.972 84.1269 128.092C76.871 128.794 69.0702 128.168 62.1269 125.902C58.2433 124.635 53.8568 121.238 49.7026 121.412C45.1601 121.603 36.0264 128.482 31.9093 125.195C27.6381 121.785 36.1985 109.304 34.9287 104.262C32.644 95.191 28.3059 88.0552 28.3059 78.262C28.3059 51.3906 48.2183 31.6361 74.127 28.5475Z"
              fill="#9c98fa"/>
    </g>
</svg>
